<svg width="653" height="653" viewBox="0 0 653 653" fill="none" xmlns="http://www.w3.org/2000/svg">
<mask id="path-1-inside-1_42_344" fill="white">
<path d="M653 326.5C653 394.246 631.927 460.314 592.701 515.549C553.475 570.783 498.039 612.448 434.075 634.769C370.112 657.09 300.79 658.962 235.715 640.125C170.641 621.287 113.037 582.675 70.888 529.637C28.7387 476.6 4.13115 411.765 0.475658 344.118C-3.17984 276.47 14.2978 209.361 50.4863 152.09C86.6748 94.82 139.782 50.2246 202.448 24.4847C265.113 -1.25512 334.234 -6.8646 400.23 8.4337L375.309 115.941C331.62 105.814 285.862 109.527 244.378 126.567C202.893 143.607 167.736 173.129 143.78 211.041C119.823 248.954 108.253 293.38 110.673 338.163C113.093 382.945 129.383 425.866 157.286 460.976C185.188 496.087 223.322 521.648 266.401 534.118C309.48 546.589 355.371 545.35 397.715 530.573C440.058 515.797 476.756 488.215 502.724 451.65C528.692 415.085 542.642 371.348 542.642 326.5H653Z"/>
</mask>
<path d="M653 326.5C653 394.246 631.927 460.314 592.701 515.549C553.475 570.783 498.039 612.448 434.075 634.769C370.112 657.09 300.79 658.962 235.715 640.125C170.641 621.287 113.037 582.675 70.888 529.637C28.7387 476.6 4.13115 411.765 0.475658 344.118C-3.17984 276.47 14.2978 209.361 50.4863 152.09C86.6748 94.82 139.782 50.2246 202.448 24.4847C265.113 -1.25512 334.234 -6.8646 400.23 8.4337L375.309 115.941C331.62 105.814 285.862 109.527 244.378 126.567C202.893 143.607 167.736 173.129 143.78 211.041C119.823 248.954 108.253 293.38 110.673 338.163C113.093 382.945 129.383 425.866 157.286 460.976C185.188 496.087 223.322 521.648 266.401 534.118C309.48 546.589 355.371 545.35 397.715 530.573C440.058 515.797 476.756 488.215 502.724 451.65C528.692 415.085 542.642 371.348 542.642 326.5H653Z" stroke="#FFA800" stroke-width="200" mask="url(#path-1-inside-1_42_344)"/>
</svg>
