<svg width="31" height="37" viewBox="0 0 31 37" fill="none" xmlns="http://www.w3.org/2000/svg">
<path d="M10.9282 3.6534L3.6782 9.50984C2.36188 10.5732 1.7037 11.1048 1.35184 11.8397C1 12.5747 1 13.4178 1 15.104V21.5841C1 28.3798 1 31.7778 3.12347 33.8888C5.24696 36 8.66463 36 15.5 36C22.3353 36 25.7531 36 27.8765 33.8888C30 31.7778 30 28.3798 30 21.5841V15.104C30 13.4178 30 12.5747 29.6482 11.8397C29.2962 11.1048 28.6381 10.5732 27.3218 9.50984L20.0718 3.6534C17.882 1.88447 16.7871 1 15.5 1C14.2129 1 13.118 1.88447 10.9282 3.6534Z" stroke="#7EC4FF" stroke-width="1.5"/>
<rect x="11" y="22" width="10" height="3" rx="1.5" fill="#7EC4FF"/>
</svg>
